<svg width="16" height="16" fill="none" xmlns="http://www.w3.org/2000/svg"><path d="M11.43 11.067l-.515.773c-.103.155-.239.286-.418.334-.588.155-2.147.225-4.521-2.15C3.6 7.65 3.67 6.092 3.826 5.505c.048-.18.18-.316.334-.419l.773-.516a1.253 1.253 0 00.348-1.737L3.82.642A1.253 1.253 0 002.283.185l-.659.282c-.5.215-.908.6-1.152 1.087-.203.407-.36.835-.382 1.29-.068 1.431.246 4.96 4.176 8.89 3.93 3.929 7.458 4.243 8.89 4.175.454-.021.883-.179 1.29-.382a2.302 2.302 0 001.086-1.152l.282-.66c.238-.554.046-1.2-.456-1.535l-2.191-1.46a1.253 1.253 0 00-1.737.347z" fill="#898989"/></svg>